<svg width="18.5" height="18.5" viewBox="19 23 25 12" fill="none" xmlns="http://www.w3.org/2000/svg">
<path d="M36.5 29.375V40.625C36.4985 41.1218 36.3005 41.5979 35.9492 41.9492C35.5979 42.3005 35.1218 42.4985 34.625 42.5H26.375C25.8782 42.4985 25.4021 42.3005 25.0508 41.9492C24.6995 41.5979 24.5015 41.1218 24.5 40.625V30.5" stroke="black" stroke-width="1.5" stroke-linecap="round" stroke-linejoin="round"/>
<path d="M36.5 30.5H38.375C39.0706 30.502 39.7371 30.7792 40.229 31.271C40.7208 31.7629 40.998 32.4294 41 33.125V36.875C40.998 37.5706 40.7208 38.2371 40.229 38.729C39.7371 39.2208 39.0706 39.498 38.375 39.5H36.5" stroke="black" stroke-width="1.5" stroke-miterlimit="10" stroke-linecap="round"/>
<path d="M30.5 32V39.5M33.5 32V39.5M27.5 32V39.5M35 25.25C35.5967 25.25 36.169 25.4871 36.591 25.909C37.0129 26.331 37.25 26.9033 37.25 27.5C37.25 28.0967 37.0129 28.669 36.591 29.091C36.169 29.5129 35.5967 29.75 35 29.75C34.3789 29.75 33.6261 29.4073 33.2188 29H27.5C27.125 30.0312 26.2344 30.5 25.25 30.5C24.6533 30.5 24.081 30.2629 23.659 29.841C23.2371 29.419 23 28.8467 23 28.25C23 27.6533 23.2371 27.081 23.659 26.659C24.081 26.2371 24.6533 26 25.25 26C25.6888 26.0184 26.1125 26.1651 26.4688 26.4219" stroke="black" stroke-width="1.5" stroke-linecap="round" stroke-linejoin="round"/>
<path d="M24.3063 26.2077C24.1225 26.0255 23.9783 25.8073 23.8829 25.5667C23.7876 25.3261 23.743 25.0683 23.7521 24.8097C23.7613 24.551 23.8238 24.2971 23.9359 24.0638C24.048 23.8305 24.2071 23.6229 24.4033 23.4542C24.5996 23.2854 24.8286 23.1591 25.076 23.0832C25.3235 23.0073 25.5839 22.9834 25.841 23.0131C26.0981 23.0428 26.3463 23.1253 26.5699 23.2556C26.7935 23.3859 26.9878 23.5611 27.1404 23.7702C27.1404 23.7702 27.5004 24.2656 27.5004 24.5M26.8362 23.0333C27.6513 22.1042 28.7927 21.5 30.1254 21.5C32.5807 21.5 34.5316 23.5081 34.5316 25.963C34.5318 26.2428 34.5056 26.522 34.4533 26.7969" stroke="black" stroke-width="1.5" stroke-miterlimit="10" stroke-linecap="round"/>
</svg>
