<svg width="18.5" height="18.5" viewBox="63 23 25 12" fill="none" xmlns="http://www.w3.org/2000/svg">
<path d="M81.625 40.25H69.4375C67.9202 40.25 66.6142 39.8482 65.6598 39.0889C64.5738 38.224 64 36.9401 64 35.375C64 32.6764 65.9687 31.129 68.1044 30.6523C68.2449 30.6203 68.3731 30.5485 68.4739 30.4455C68.5746 30.3425 68.6436 30.2127 68.6725 30.0715C69.0325 28.3521 69.8186 26.877 70.9778 25.759C72.327 24.4619 74.1284 23.7413 76 23.75C77.6641 23.75 79.1987 24.2979 80.4381 25.3343C81.2853 26.0489 81.9593 26.9465 82.4092 27.9593C82.4576 28.0681 82.5312 28.1637 82.6239 28.2384C82.7165 28.313 82.8257 28.3646 82.9422 28.3887C84.2078 28.6517 85.3361 29.201 86.185 29.9754C87.3723 31.0568 88 32.5353 88 34.25C88 35.9375 87.3259 37.4787 86.102 38.5901C84.9231 39.6607 83.3331 40.25 81.625 40.25Z" fill="black"/>
</svg>
