<svg width="108" height="64" viewBox="0 0 108 64" fill="none" xmlns="http://www.w3.org/2000/svg">
<path d="M32 22.25C26.6239 22.25 22.25 26.6239 22.25 32C22.25 37.3761 26.6239 41.75 32 41.75C37.3761 41.75 41.75 37.3761 41.75 32C41.75 26.6239 37.3761 22.25 32 22.25ZM35.5011 34.1009C35.0614 34.6372 34.2636 35.4945 32.4214 36.7452C32.2972 36.8302 32.1501 36.8757 31.9995 36.8757C31.849 36.8757 31.7019 36.8302 31.5777 36.7452C29.7355 35.4945 28.9377 34.6358 28.498 34.1009C27.5605 32.9586 27.1114 31.7853 27.1245 30.515C27.1391 29.0591 28.3067 27.8745 29.7275 27.8745C30.6838 27.8745 31.3681 28.3728 31.7947 28.8312C31.821 28.8591 31.8527 28.8812 31.8878 28.8963C31.9229 28.9115 31.9608 28.9193 31.9991 28.9193C32.0373 28.9193 32.0752 28.9115 32.1103 28.8963C32.1455 28.8812 32.1772 28.8591 32.2034 28.8312C32.6305 28.3728 33.3144 27.8745 34.2706 27.8745C35.6914 27.8745 36.8591 29.0591 36.8736 30.515C36.8877 31.7853 36.4381 32.9586 35.5011 34.1009Z" fill="black"/>
<rect x="0.5" y="0.5" width="107" height="63" rx="4.5" stroke="#9747FF" stroke-dasharray="10 5"/>
</svg>
