<svg width="18.5" height="18.5" viewBox="19 23 25 12" fill="none" xmlns="http://www.w3.org/2000/svg">
<path d="M39.5 26.75H24.5C23.2574 26.75 22.25 27.7574 22.25 29V38C22.25 39.2426 23.2574 40.25 24.5 40.25H39.5C40.7426 40.25 41.75 39.2426 41.75 38V29C41.75 27.7574 40.7426 26.75 39.5 26.75Z" stroke="black" stroke-width="1.5" stroke-linejoin="round"/>
<path d="M39.2825 26.75V25.3437C39.2824 24.9988 39.2062 24.6582 39.0592 24.3461C38.9123 24.0341 38.6984 23.7583 38.4326 23.5385C38.1668 23.3187 37.8558 23.1602 37.5217 23.0744C37.1877 22.9886 36.8388 22.9776 36.5 23.0422L24.155 25.1492C23.6189 25.2514 23.1353 25.5374 22.7875 25.958C22.4397 26.3786 22.2496 26.9074 22.25 27.4531V29.75" stroke="black" stroke-width="1.5" stroke-linejoin="round"/>
<path d="M37.25 35C36.9533 35 36.6633 34.912 36.4166 34.7472C36.17 34.5824 35.9777 34.3481 35.8642 34.074C35.7506 33.7999 35.7209 33.4983 35.7788 33.2074C35.8367 32.9164 35.9796 32.6491 36.1893 32.4393C36.3991 32.2296 36.6664 32.0867 36.9574 32.0288C37.2483 31.9709 37.5499 32.0006 37.824 32.1142C38.0981 32.2277 38.3324 32.42 38.4972 32.6666C38.662 32.9133 38.75 33.2033 38.75 33.5C38.75 33.8978 38.592 34.2794 38.3107 34.5607C38.0294 34.842 37.6478 35 37.25 35Z" fill="black"/>
</svg>
